<mxfile host="Electron" modified="2023-06-12T02:20:36.484Z" agent="Mozilla/5.0 (Windows NT 10.0; Win64; x64) AppleWebKit/537.36 (KHTML, like Gecko) draw.io/21.2.8 Chrome/112.0.5615.165 Electron/24.2.0 Safari/537.36" etag="ErV2wCdZHtbUgJNheDLL" version="21.2.8" type="device">
  <diagram name="Page-1" id="SOqGkkcfoG1m2xs4eLnT">
    <mxGraphModel dx="1098" dy="779" grid="1" gridSize="10" guides="1" tooltips="1" connect="1" arrows="1" fold="1" page="1" pageScale="1" pageWidth="850" pageHeight="1100" math="0" shadow="0">
      <root>
        <mxCell id="0" />
        <mxCell id="1" parent="0" />
        <mxCell id="slQ0p0RlZzj3LKLuBi1Q-2" value="Open Ordereing UI in EHR" style="whiteSpace=wrap;html=1;aspect=fixed;" vertex="1" parent="1">
          <mxGeometry x="280" y="80" width="80" height="80" as="geometry" />
        </mxCell>
        <mxCell id="slQ0p0RlZzj3LKLuBi1Q-4" value="Provider CRD Environment" style="swimlane;whiteSpace=wrap;html=1;fillColor=#fff2cc;strokeColor=#d6b656;" vertex="1" parent="1">
          <mxGeometry x="40" y="40" width="200" height="760" as="geometry" />
        </mxCell>
        <mxCell id="slQ0p0RlZzj3LKLuBi1Q-1" value="EHR&lt;br&gt;CRD Client" style="shape=umlActor;verticalLabelPosition=bottom;verticalAlign=top;html=1;outlineConnect=0;fillColor=#ffe6cc;strokeColor=#d79b00;" vertex="1" parent="slQ0p0RlZzj3LKLuBi1Q-4">
          <mxGeometry x="85" y="170" width="30" height="60" as="geometry" />
        </mxCell>
        <mxCell id="slQ0p0RlZzj3LKLuBi1Q-6" value="Clinician" style="shape=umlActor;verticalLabelPosition=bottom;verticalAlign=top;html=1;outlineConnect=0;fillColor=#dae8fc;strokeColor=#6c8ebf;" vertex="1" parent="slQ0p0RlZzj3LKLuBi1Q-4">
          <mxGeometry x="85" y="50" width="30" height="60" as="geometry" />
        </mxCell>
        <mxCell id="slQ0p0RlZzj3LKLuBi1Q-26" value="Clinician" style="shape=umlActor;verticalLabelPosition=bottom;verticalAlign=top;html=1;outlineConnect=0;fillColor=#dae8fc;strokeColor=#6c8ebf;" vertex="1" parent="slQ0p0RlZzj3LKLuBi1Q-4">
          <mxGeometry x="85" y="650" width="30" height="60" as="geometry" />
        </mxCell>
        <mxCell id="slQ0p0RlZzj3LKLuBi1Q-5" value="Payer CRD Environment" style="swimlane;whiteSpace=wrap;html=1;fillColor=#d5e8d4;strokeColor=#82b366;" vertex="1" parent="1">
          <mxGeometry x="400" y="40" width="200" height="760" as="geometry" />
        </mxCell>
        <mxCell id="slQ0p0RlZzj3LKLuBi1Q-9" value="Smile&lt;br&gt;CRD Service" style="shape=umlActor;verticalLabelPosition=bottom;verticalAlign=top;html=1;outlineConnect=0;fillColor=#d5e8d4;strokeColor=#82b366;" vertex="1" parent="slQ0p0RlZzj3LKLuBi1Q-5">
          <mxGeometry x="80" y="290" width="30" height="60" as="geometry" />
        </mxCell>
        <mxCell id="slQ0p0RlZzj3LKLuBi1Q-7" style="edgeStyle=orthogonalEdgeStyle;rounded=0;orthogonalLoop=1;jettySize=auto;html=1;" edge="1" parent="1" source="slQ0p0RlZzj3LKLuBi1Q-6" target="slQ0p0RlZzj3LKLuBi1Q-2">
          <mxGeometry relative="1" as="geometry" />
        </mxCell>
        <mxCell id="slQ0p0RlZzj3LKLuBi1Q-8" value="Trigger&lt;br&gt;CDS Hook Requesting&lt;br&gt;Coverage&amp;nbsp;&lt;br&gt;Requirements" style="whiteSpace=wrap;html=1;aspect=fixed;" vertex="1" parent="1">
          <mxGeometry x="280" y="200" width="80" height="80" as="geometry" />
        </mxCell>
        <mxCell id="slQ0p0RlZzj3LKLuBi1Q-12" style="edgeStyle=orthogonalEdgeStyle;rounded=0;orthogonalLoop=1;jettySize=auto;html=1;" edge="1" parent="1" source="slQ0p0RlZzj3LKLuBi1Q-1" target="slQ0p0RlZzj3LKLuBi1Q-8">
          <mxGeometry relative="1" as="geometry" />
        </mxCell>
        <mxCell id="slQ0p0RlZzj3LKLuBi1Q-13" value="Return CDS Hook Card With Link To&amp;nbsp;&lt;br&gt;Questionnaire / CQL" style="whiteSpace=wrap;html=1;aspect=fixed;" vertex="1" parent="1">
          <mxGeometry x="280" y="320" width="80" height="80" as="geometry" />
        </mxCell>
        <mxCell id="slQ0p0RlZzj3LKLuBi1Q-15" style="edgeStyle=orthogonalEdgeStyle;rounded=0;orthogonalLoop=1;jettySize=auto;html=1;entryX=1;entryY=0.5;entryDx=0;entryDy=0;" edge="1" parent="1" source="slQ0p0RlZzj3LKLuBi1Q-9" target="slQ0p0RlZzj3LKLuBi1Q-13">
          <mxGeometry relative="1" as="geometry" />
        </mxCell>
        <mxCell id="slQ0p0RlZzj3LKLuBi1Q-16" value="Return CDS Hook Card With Message No&lt;br&gt;Requirements" style="whiteSpace=wrap;html=1;aspect=fixed;" vertex="1" parent="1">
          <mxGeometry x="280" y="440" width="80" height="80" as="geometry" />
        </mxCell>
        <mxCell id="slQ0p0RlZzj3LKLuBi1Q-17" value="OR" style="text;html=1;strokeColor=none;fillColor=none;align=center;verticalAlign=middle;whiteSpace=wrap;rounded=0;" vertex="1" parent="1">
          <mxGeometry x="290" y="406" width="60" height="30" as="geometry" />
        </mxCell>
        <mxCell id="slQ0p0RlZzj3LKLuBi1Q-18" style="edgeStyle=orthogonalEdgeStyle;rounded=0;orthogonalLoop=1;jettySize=auto;html=1;entryX=1;entryY=0.5;entryDx=0;entryDy=0;" edge="1" parent="1" source="slQ0p0RlZzj3LKLuBi1Q-9" target="slQ0p0RlZzj3LKLuBi1Q-16">
          <mxGeometry relative="1" as="geometry" />
        </mxCell>
        <mxCell id="slQ0p0RlZzj3LKLuBi1Q-23" value="Display Link To Launch DTR Smart On FHIR App" style="whiteSpace=wrap;html=1;aspect=fixed;" vertex="1" parent="1">
          <mxGeometry x="280" y="560" width="80" height="80" as="geometry" />
        </mxCell>
        <mxCell id="slQ0p0RlZzj3LKLuBi1Q-25" style="edgeStyle=orthogonalEdgeStyle;rounded=0;orthogonalLoop=1;jettySize=auto;html=1;entryX=0;entryY=0.5;entryDx=0;entryDy=0;" edge="1" parent="1" source="slQ0p0RlZzj3LKLuBi1Q-1" target="slQ0p0RlZzj3LKLuBi1Q-23">
          <mxGeometry relative="1" as="geometry">
            <Array as="points">
              <mxPoint x="200" y="240" />
              <mxPoint x="200" y="600" />
            </Array>
          </mxGeometry>
        </mxCell>
        <mxCell id="slQ0p0RlZzj3LKLuBi1Q-27" value="Click Link To Launch DTR Smart On FHIR App" style="whiteSpace=wrap;html=1;aspect=fixed;" vertex="1" parent="1">
          <mxGeometry x="280" y="680" width="80" height="80" as="geometry" />
        </mxCell>
        <mxCell id="slQ0p0RlZzj3LKLuBi1Q-28" style="edgeStyle=orthogonalEdgeStyle;rounded=0;orthogonalLoop=1;jettySize=auto;html=1;entryX=0;entryY=0.5;entryDx=0;entryDy=0;" edge="1" parent="1" source="slQ0p0RlZzj3LKLuBi1Q-26" target="slQ0p0RlZzj3LKLuBi1Q-27">
          <mxGeometry relative="1" as="geometry" />
        </mxCell>
        <mxCell id="slQ0p0RlZzj3LKLuBi1Q-29" value="IF&lt;br&gt;REQUIREMENTS" style="text;html=1;strokeColor=none;fillColor=none;align=center;verticalAlign=middle;whiteSpace=wrap;rounded=0;" vertex="1" parent="1">
          <mxGeometry x="290" y="525" width="60" height="30" as="geometry" />
        </mxCell>
        <mxCell id="slQ0p0RlZzj3LKLuBi1Q-50" value="Launch Smile DTR SoF App" style="whiteSpace=wrap;html=1;aspect=fixed;" vertex="1" parent="1">
          <mxGeometry x="280" y="880" width="80" height="80" as="geometry" />
        </mxCell>
        <mxCell id="slQ0p0RlZzj3LKLuBi1Q-51" value="Provider DTR Environment" style="swimlane;whiteSpace=wrap;html=1;fillColor=#fff2cc;strokeColor=#d6b656;" vertex="1" parent="1">
          <mxGeometry x="40" y="840" width="200" height="1120" as="geometry" />
        </mxCell>
        <mxCell id="slQ0p0RlZzj3LKLuBi1Q-52" value="Smile DTR&lt;br&gt;SoF App" style="shape=umlActor;verticalLabelPosition=bottom;verticalAlign=top;html=1;outlineConnect=0;fillColor=#d5e8d4;strokeColor=#82b366;" vertex="1" parent="slQ0p0RlZzj3LKLuBi1Q-51">
          <mxGeometry x="85" y="170" width="30" height="60" as="geometry" />
        </mxCell>
        <mxCell id="slQ0p0RlZzj3LKLuBi1Q-53" value="EHR&lt;br style=&quot;border-color: var(--border-color);&quot;&gt;DTR Client" style="shape=umlActor;verticalLabelPosition=bottom;verticalAlign=top;html=1;outlineConnect=0;fillColor=#fff2cc;strokeColor=#d6b656;" vertex="1" parent="slQ0p0RlZzj3LKLuBi1Q-51">
          <mxGeometry x="85" y="50" width="30" height="60" as="geometry" />
        </mxCell>
        <mxCell id="slQ0p0RlZzj3LKLuBi1Q-54" value="Clinician" style="shape=umlActor;verticalLabelPosition=bottom;verticalAlign=top;html=1;outlineConnect=0;fillColor=#dae8fc;strokeColor=#6c8ebf;" vertex="1" parent="slQ0p0RlZzj3LKLuBi1Q-51">
          <mxGeometry x="85" y="770" width="30" height="60" as="geometry" />
        </mxCell>
        <mxCell id="slQ0p0RlZzj3LKLuBi1Q-84" value="EHR&lt;br style=&quot;border-color: var(--border-color);&quot;&gt;DTR Client" style="shape=umlActor;verticalLabelPosition=bottom;verticalAlign=top;html=1;outlineConnect=0;fillColor=#fff2cc;strokeColor=#d6b656;" vertex="1" parent="slQ0p0RlZzj3LKLuBi1Q-51">
          <mxGeometry x="85" y="1010" width="30" height="60" as="geometry" />
        </mxCell>
        <mxCell id="slQ0p0RlZzj3LKLuBi1Q-55" value="Payer DTR Environment" style="swimlane;whiteSpace=wrap;html=1;fillColor=#d5e8d4;strokeColor=#82b366;" vertex="1" parent="1">
          <mxGeometry x="400" y="840" width="200" height="1120" as="geometry" />
        </mxCell>
        <mxCell id="slQ0p0RlZzj3LKLuBi1Q-56" value="Smile DTR Service" style="shape=umlActor;verticalLabelPosition=bottom;verticalAlign=top;html=1;outlineConnect=0;fillColor=#d5e8d4;strokeColor=#82b366;" vertex="1" parent="slQ0p0RlZzj3LKLuBi1Q-55">
          <mxGeometry x="80" y="290" width="30" height="60" as="geometry" />
        </mxCell>
        <mxCell id="slQ0p0RlZzj3LKLuBi1Q-72" value="Smile DTR CR Service" style="shape=umlActor;verticalLabelPosition=bottom;verticalAlign=top;html=1;outlineConnect=0;fillColor=#d5e8d4;strokeColor=#82b366;" vertex="1" parent="slQ0p0RlZzj3LKLuBi1Q-55">
          <mxGeometry x="85" y="530" width="30" height="60" as="geometry" />
        </mxCell>
        <mxCell id="slQ0p0RlZzj3LKLuBi1Q-57" style="edgeStyle=orthogonalEdgeStyle;rounded=0;orthogonalLoop=1;jettySize=auto;html=1;" edge="1" parent="1" source="slQ0p0RlZzj3LKLuBi1Q-53" target="slQ0p0RlZzj3LKLuBi1Q-50">
          <mxGeometry relative="1" as="geometry" />
        </mxCell>
        <mxCell id="slQ0p0RlZzj3LKLuBi1Q-58" value="Request Questionnaire / CQL" style="whiteSpace=wrap;html=1;aspect=fixed;" vertex="1" parent="1">
          <mxGeometry x="280" y="1000" width="80" height="80" as="geometry" />
        </mxCell>
        <mxCell id="slQ0p0RlZzj3LKLuBi1Q-59" style="edgeStyle=orthogonalEdgeStyle;rounded=0;orthogonalLoop=1;jettySize=auto;html=1;" edge="1" parent="1" source="slQ0p0RlZzj3LKLuBi1Q-52" target="slQ0p0RlZzj3LKLuBi1Q-58">
          <mxGeometry relative="1" as="geometry" />
        </mxCell>
        <mxCell id="slQ0p0RlZzj3LKLuBi1Q-60" value="Return Questionnaire / CQL" style="whiteSpace=wrap;html=1;aspect=fixed;" vertex="1" parent="1">
          <mxGeometry x="280" y="1120" width="80" height="80" as="geometry" />
        </mxCell>
        <mxCell id="slQ0p0RlZzj3LKLuBi1Q-61" style="edgeStyle=orthogonalEdgeStyle;rounded=0;orthogonalLoop=1;jettySize=auto;html=1;entryX=1;entryY=0.5;entryDx=0;entryDy=0;" edge="1" parent="1" source="slQ0p0RlZzj3LKLuBi1Q-56" target="slQ0p0RlZzj3LKLuBi1Q-60">
          <mxGeometry relative="1" as="geometry" />
        </mxCell>
        <mxCell id="slQ0p0RlZzj3LKLuBi1Q-62" value="Request Auto-&lt;br&gt;Fill of Questionnaire" style="whiteSpace=wrap;html=1;aspect=fixed;" vertex="1" parent="1">
          <mxGeometry x="280" y="1240" width="80" height="80" as="geometry" />
        </mxCell>
        <mxCell id="slQ0p0RlZzj3LKLuBi1Q-65" value="Run CQL To Auto-Fill Questionnaire,&lt;br&gt;Return Questionnaire" style="whiteSpace=wrap;html=1;aspect=fixed;" vertex="1" parent="1">
          <mxGeometry x="280" y="1360" width="80" height="80" as="geometry" />
        </mxCell>
        <mxCell id="slQ0p0RlZzj3LKLuBi1Q-67" value="Display Questionnaire" style="whiteSpace=wrap;html=1;aspect=fixed;" vertex="1" parent="1">
          <mxGeometry x="280" y="1480" width="80" height="80" as="geometry" />
        </mxCell>
        <mxCell id="slQ0p0RlZzj3LKLuBi1Q-73" style="edgeStyle=orthogonalEdgeStyle;rounded=0;orthogonalLoop=1;jettySize=auto;html=1;entryX=1;entryY=0.5;entryDx=0;entryDy=0;" edge="1" parent="1" source="slQ0p0RlZzj3LKLuBi1Q-72" target="slQ0p0RlZzj3LKLuBi1Q-65">
          <mxGeometry relative="1" as="geometry" />
        </mxCell>
        <mxCell id="slQ0p0RlZzj3LKLuBi1Q-76" style="edgeStyle=orthogonalEdgeStyle;rounded=0;orthogonalLoop=1;jettySize=auto;html=1;entryX=0;entryY=0.5;entryDx=0;entryDy=0;" edge="1" parent="1" source="slQ0p0RlZzj3LKLuBi1Q-52" target="slQ0p0RlZzj3LKLuBi1Q-62">
          <mxGeometry relative="1" as="geometry">
            <Array as="points">
              <mxPoint x="200" y="1040" />
              <mxPoint x="200" y="1280" />
            </Array>
          </mxGeometry>
        </mxCell>
        <mxCell id="slQ0p0RlZzj3LKLuBi1Q-77" style="edgeStyle=orthogonalEdgeStyle;rounded=0;orthogonalLoop=1;jettySize=auto;html=1;entryX=0;entryY=0.5;entryDx=0;entryDy=0;" edge="1" parent="1" source="slQ0p0RlZzj3LKLuBi1Q-52" target="slQ0p0RlZzj3LKLuBi1Q-67">
          <mxGeometry relative="1" as="geometry">
            <Array as="points">
              <mxPoint x="200" y="1040" />
              <mxPoint x="200" y="1520" />
            </Array>
          </mxGeometry>
        </mxCell>
        <mxCell id="slQ0p0RlZzj3LKLuBi1Q-78" value="Edit/Complete Questionnaire Answers" style="whiteSpace=wrap;html=1;aspect=fixed;" vertex="1" parent="1">
          <mxGeometry x="280" y="1600" width="80" height="80" as="geometry" />
        </mxCell>
        <mxCell id="slQ0p0RlZzj3LKLuBi1Q-79" style="edgeStyle=orthogonalEdgeStyle;rounded=0;orthogonalLoop=1;jettySize=auto;html=1;" edge="1" parent="1" source="slQ0p0RlZzj3LKLuBi1Q-54" target="slQ0p0RlZzj3LKLuBi1Q-78">
          <mxGeometry relative="1" as="geometry" />
        </mxCell>
        <mxCell id="slQ0p0RlZzj3LKLuBi1Q-80" value="Submit Smile DTR SoF App" style="whiteSpace=wrap;html=1;aspect=fixed;" vertex="1" parent="1">
          <mxGeometry x="280" y="1720" width="80" height="80" as="geometry" />
        </mxCell>
        <mxCell id="slQ0p0RlZzj3LKLuBi1Q-81" style="edgeStyle=orthogonalEdgeStyle;rounded=0;orthogonalLoop=1;jettySize=auto;html=1;entryX=0;entryY=0.5;entryDx=0;entryDy=0;" edge="1" parent="1" source="slQ0p0RlZzj3LKLuBi1Q-54" target="slQ0p0RlZzj3LKLuBi1Q-80">
          <mxGeometry relative="1" as="geometry">
            <Array as="points">
              <mxPoint x="200" y="1640" />
              <mxPoint x="200" y="1760" />
            </Array>
          </mxGeometry>
        </mxCell>
        <mxCell id="slQ0p0RlZzj3LKLuBi1Q-82" value="Save PA Request" style="whiteSpace=wrap;html=1;aspect=fixed;" vertex="1" parent="1">
          <mxGeometry x="280" y="1840" width="80" height="80" as="geometry" />
        </mxCell>
        <mxCell id="slQ0p0RlZzj3LKLuBi1Q-86" style="edgeStyle=orthogonalEdgeStyle;rounded=0;orthogonalLoop=1;jettySize=auto;html=1;" edge="1" parent="1" source="slQ0p0RlZzj3LKLuBi1Q-84" target="slQ0p0RlZzj3LKLuBi1Q-82">
          <mxGeometry relative="1" as="geometry" />
        </mxCell>
        <mxCell id="slQ0p0RlZzj3LKLuBi1Q-89" value="Request Prior Auth" style="whiteSpace=wrap;html=1;aspect=fixed;" vertex="1" parent="1">
          <mxGeometry x="280" y="2040" width="80" height="80" as="geometry" />
        </mxCell>
        <mxCell id="slQ0p0RlZzj3LKLuBi1Q-90" value="Provider PAS Environment" style="swimlane;whiteSpace=wrap;html=1;fillColor=#fff2cc;strokeColor=#d6b656;" vertex="1" parent="1">
          <mxGeometry x="40" y="2000" width="200" height="880" as="geometry" />
        </mxCell>
        <mxCell id="slQ0p0RlZzj3LKLuBi1Q-91" value="EHR PAS Client" style="shape=umlActor;verticalLabelPosition=bottom;verticalAlign=top;html=1;outlineConnect=0;fillColor=#fff2cc;strokeColor=#d6b656;" vertex="1" parent="slQ0p0RlZzj3LKLuBi1Q-90">
          <mxGeometry x="85" y="170" width="30" height="60" as="geometry" />
        </mxCell>
        <mxCell id="slQ0p0RlZzj3LKLuBi1Q-92" value="Clinician" style="shape=umlActor;verticalLabelPosition=bottom;verticalAlign=top;html=1;outlineConnect=0;fillColor=#dae8fc;strokeColor=#6c8ebf;" vertex="1" parent="slQ0p0RlZzj3LKLuBi1Q-90">
          <mxGeometry x="85" y="50" width="30" height="60" as="geometry" />
        </mxCell>
        <mxCell id="slQ0p0RlZzj3LKLuBi1Q-93" value="Clinician" style="shape=umlActor;verticalLabelPosition=bottom;verticalAlign=top;html=1;outlineConnect=0;fillColor=#dae8fc;strokeColor=#6c8ebf;" vertex="1" parent="slQ0p0RlZzj3LKLuBi1Q-90">
          <mxGeometry x="85" y="770" width="30" height="60" as="geometry" />
        </mxCell>
        <mxCell id="slQ0p0RlZzj3LKLuBi1Q-95" value="Payer PAS Environment" style="swimlane;whiteSpace=wrap;html=1;fillColor=#d5e8d4;strokeColor=#82b366;" vertex="1" parent="1">
          <mxGeometry x="400" y="2000" width="200" height="880" as="geometry" />
        </mxCell>
        <mxCell id="slQ0p0RlZzj3LKLuBi1Q-96" value="Smile PAS Service" style="shape=umlActor;verticalLabelPosition=bottom;verticalAlign=top;html=1;outlineConnect=0;fillColor=#d5e8d4;strokeColor=#82b366;" vertex="1" parent="slQ0p0RlZzj3LKLuBi1Q-95">
          <mxGeometry x="80" y="290" width="30" height="60" as="geometry" />
        </mxCell>
        <mxCell id="slQ0p0RlZzj3LKLuBi1Q-97" value="Smile PAS Service" style="shape=umlActor;verticalLabelPosition=bottom;verticalAlign=top;html=1;outlineConnect=0;fillColor=#d5e8d4;strokeColor=#82b366;" vertex="1" parent="slQ0p0RlZzj3LKLuBi1Q-95">
          <mxGeometry x="85" y="530" width="30" height="60" as="geometry" />
        </mxCell>
        <mxCell id="slQ0p0RlZzj3LKLuBi1Q-115" value="Black Box Service&lt;br&gt;(Smile CR TBD)" style="shape=umlActor;verticalLabelPosition=bottom;verticalAlign=top;html=1;outlineConnect=0;fillColor=#f8cecc;strokeColor=#b85450;" vertex="1" parent="slQ0p0RlZzj3LKLuBi1Q-95">
          <mxGeometry x="80" y="410" width="30" height="60" as="geometry" />
        </mxCell>
        <mxCell id="slQ0p0RlZzj3LKLuBi1Q-98" style="edgeStyle=orthogonalEdgeStyle;rounded=0;orthogonalLoop=1;jettySize=auto;html=1;" edge="1" parent="1" source="slQ0p0RlZzj3LKLuBi1Q-92" target="slQ0p0RlZzj3LKLuBi1Q-89">
          <mxGeometry relative="1" as="geometry" />
        </mxCell>
        <mxCell id="slQ0p0RlZzj3LKLuBi1Q-99" value="Send PA Request (with completed Questionaire)" style="whiteSpace=wrap;html=1;aspect=fixed;" vertex="1" parent="1">
          <mxGeometry x="280" y="2160" width="80" height="80" as="geometry" />
        </mxCell>
        <mxCell id="slQ0p0RlZzj3LKLuBi1Q-100" style="edgeStyle=orthogonalEdgeStyle;rounded=0;orthogonalLoop=1;jettySize=auto;html=1;" edge="1" parent="1" source="slQ0p0RlZzj3LKLuBi1Q-91" target="slQ0p0RlZzj3LKLuBi1Q-99">
          <mxGeometry relative="1" as="geometry" />
        </mxCell>
        <mxCell id="slQ0p0RlZzj3LKLuBi1Q-101" value="Request PA Determination" style="whiteSpace=wrap;html=1;aspect=fixed;" vertex="1" parent="1">
          <mxGeometry x="280" y="2280" width="80" height="80" as="geometry" />
        </mxCell>
        <mxCell id="slQ0p0RlZzj3LKLuBi1Q-102" style="edgeStyle=orthogonalEdgeStyle;rounded=0;orthogonalLoop=1;jettySize=auto;html=1;entryX=1;entryY=0.5;entryDx=0;entryDy=0;" edge="1" parent="1" source="slQ0p0RlZzj3LKLuBi1Q-96" target="slQ0p0RlZzj3LKLuBi1Q-101">
          <mxGeometry relative="1" as="geometry" />
        </mxCell>
        <mxCell id="slQ0p0RlZzj3LKLuBi1Q-103" value="Determine Approval / Denial&lt;br&gt;(Adjudication)" style="whiteSpace=wrap;html=1;aspect=fixed;" vertex="1" parent="1">
          <mxGeometry x="280" y="2400" width="80" height="80" as="geometry" />
        </mxCell>
        <mxCell id="slQ0p0RlZzj3LKLuBi1Q-104" value="Return PA Determination" style="whiteSpace=wrap;html=1;aspect=fixed;" vertex="1" parent="1">
          <mxGeometry x="280" y="2520" width="80" height="80" as="geometry" />
        </mxCell>
        <mxCell id="slQ0p0RlZzj3LKLuBi1Q-105" value="Display PA Determination" style="whiteSpace=wrap;html=1;aspect=fixed;" vertex="1" parent="1">
          <mxGeometry x="280" y="2640" width="80" height="80" as="geometry" />
        </mxCell>
        <mxCell id="slQ0p0RlZzj3LKLuBi1Q-106" style="edgeStyle=orthogonalEdgeStyle;rounded=0;orthogonalLoop=1;jettySize=auto;html=1;entryX=1;entryY=0.5;entryDx=0;entryDy=0;" edge="1" parent="1" source="slQ0p0RlZzj3LKLuBi1Q-97" target="slQ0p0RlZzj3LKLuBi1Q-104">
          <mxGeometry relative="1" as="geometry" />
        </mxCell>
        <mxCell id="slQ0p0RlZzj3LKLuBi1Q-108" style="edgeStyle=orthogonalEdgeStyle;rounded=0;orthogonalLoop=1;jettySize=auto;html=1;entryX=0;entryY=0.5;entryDx=0;entryDy=0;" edge="1" parent="1" source="slQ0p0RlZzj3LKLuBi1Q-91" target="slQ0p0RlZzj3LKLuBi1Q-105">
          <mxGeometry relative="1" as="geometry">
            <Array as="points">
              <mxPoint x="200" y="2200" />
              <mxPoint x="200" y="2680" />
            </Array>
          </mxGeometry>
        </mxCell>
        <mxCell id="slQ0p0RlZzj3LKLuBi1Q-110" style="edgeStyle=orthogonalEdgeStyle;rounded=0;orthogonalLoop=1;jettySize=auto;html=1;" edge="1" parent="1" source="slQ0p0RlZzj3LKLuBi1Q-93">
          <mxGeometry relative="1" as="geometry">
            <mxPoint x="280" y="2800" as="targetPoint" />
          </mxGeometry>
        </mxCell>
        <mxCell id="slQ0p0RlZzj3LKLuBi1Q-116" style="edgeStyle=orthogonalEdgeStyle;rounded=0;orthogonalLoop=1;jettySize=auto;html=1;" edge="1" parent="1" source="slQ0p0RlZzj3LKLuBi1Q-115" target="slQ0p0RlZzj3LKLuBi1Q-103">
          <mxGeometry relative="1" as="geometry" />
        </mxCell>
        <mxCell id="slQ0p0RlZzj3LKLuBi1Q-117" value="Notify Patient" style="whiteSpace=wrap;html=1;aspect=fixed;" vertex="1" parent="1">
          <mxGeometry x="280" y="2760" width="80" height="80" as="geometry" />
        </mxCell>
      </root>
    </mxGraphModel>
  </diagram>
</mxfile>
